<?xml version="1.0" encoding="UTF-8"?>
<svg width="150px" height="56px" viewBox="0 0 150 56" version="1.1" xmlns="http://www.w3.org/2000/svg" xmlns:xlink="http://www.w3.org/1999/xlink">
    <!-- Generator: Sketch 50.2 (55047) - http://www.bohemiancoding.com/sketch -->
    <title>Group 2</title>
    <desc>Created with Sketch.</desc>
    <defs>
        <polygon id="path-1" points="0 0.2655036 148.832165 0.2655036 148.832165 10.0569545 0 10.0569545"></polygon>
        <polygon id="path-3" points="0 55.6484817 148.832232 55.6484817 148.832232 0.0127388091 0 0.0127388091"></polygon>
    </defs>
    <g id="Page-1" stroke="none" stroke-width="1" fill="none" fill-rule="evenodd">
        <g id="06-Reset-Password" transform="translate(-1124.000000, -40.000000)">
            <g id="Group-2" transform="translate(1124.000000, 40.000000)">
                <polygon id="Fill-1" fill="#E41323" points="98.7903025 16.4159331 90.6322848 8.83168039 99.0324688 23.4399125 112.891678 0.0675501801"></polygon>
                <g id="Group-7" transform="translate(0.481744, 0.067550)">
                    <g id="Group-4" transform="translate(0.000000, 45.591527)">
                        <mask id="mask-2" fill="white">
                            <use xlink:href="#path-1"></use>
                        </mask>
                        <g id="Clip-3"></g>
                        <path d="M141.346925,0.504188654 L141.346925,1.78544466 C142.276844,1.6815228 142.877445,1.6520224 143.671722,1.6520224 L144.017236,1.6520224 L144.017236,9.81893994 L146.162528,9.81893994 L146.162528,1.6520224 L146.492521,1.6520224 C147.30232,1.6520224 147.902246,1.6815228 148.832165,1.78544466 L148.832165,0.504188654 L141.346925,0.504188654 Z M138.014603,6.60004403 L132.854836,0.504188654 L131.714369,0.504188654 L131.714369,9.81893994 L133.169308,9.81893994 L133.169308,3.96176962 L138.32975,9.81893994 L139.469542,9.81893994 L139.469542,0.504188654 L138.014603,0.504188654 L138.014603,6.60004403 Z M125.612536,8.6416058 L125.612536,5.69089534 L125.867622,5.69089534 C126.753002,5.69089534 127.682921,5.70564554 128.597994,5.74989614 L128.597994,4.46864013 C127.682921,4.51356119 126.753002,4.52831139 125.867622,4.52831139 L125.612536,4.52831139 L125.612536,1.6667726 L126.587669,1.6667726 C127.802367,1.6667726 128.402967,1.696273 129.332886,1.78544466 L129.332886,0.504188654 L123.48209,0.504188654 L123.48209,9.81893994 L129.407793,9.81893994 L129.407793,8.4920924 C128.477874,8.59668473 127.877948,8.6416058 126.662575,8.6416058 L125.612536,8.6416058 Z M118.225822,0.504188654 L115.525818,6.61479423 L112.72054,0.504188654 L110.725061,0.504188654 L110.080596,9.81893994 L111.565227,9.81893994 L111.820314,3.14179259 L114.535839,9.14780584 L115.585203,9.14780584 L118.315575,3.1270424 L118.675935,9.81893994 L120.715953,9.81893994 L120.190933,0.504188654 L118.225822,0.504188654 Z M104.196059,8.6416058 L104.196059,5.69089534 L104.451146,5.69089534 C105.335851,5.69089534 106.26577,5.70564554 107.180842,5.74989614 L107.180842,4.46864013 C106.26577,4.51356119 105.335851,4.52831139 104.451146,4.52831139 L104.196059,4.52831139 L104.196059,1.6667726 L105.170517,1.6667726 C106.38589,1.6667726 106.985816,1.696273 107.915735,1.78544466 L107.915735,0.504188654 L102.065614,0.504188654 L102.065614,9.81893994 L107.991316,9.81893994 L107.991316,8.4920924 C107.060722,8.59668473 106.460796,8.6416058 105.246098,8.6416058 L104.196059,8.6416058 Z M95.5980211,5.94366013 L97.5030726,5.94366013 L97.5030726,8.59668473 C97.0684807,8.82061959 96.5880001,8.89504105 96.137887,8.89504105 C94.0681764,8.89504105 93.1976428,7.19541573 93.1976428,5.16927463 C93.1976428,3.14179259 94.3077418,1.45825841 96.3781272,1.45825841 C97.2034471,1.45825841 97.8485868,1.6815228 98.5531116,2.17364311 L99.1982513,1.11498103 C98.4032989,0.548439254 97.4578589,0.2655036 96.2127933,0.2655036 C93.0181374,0.2655036 90.9329057,2.3821573 90.9329057,5.28794669 C90.9329057,8.20915675 92.6732981,10.0569545 95.6884487,10.0569545 C97.083327,10.0569545 98.3580851,9.72976828 99.2731577,9.10355524 L99.2731577,4.79649685 L95.5980211,4.79649685 L95.5980211,5.94366013 Z M83.9342202,6.36135897 L85.2541922,2.45657876 L86.4236765,6.36135897 L83.9342202,6.36135897 Z M84.7588653,0.504188654 L81.2038489,9.81893994 L82.7640611,9.81893994 L83.5590135,7.46360119 L86.7691906,7.46360119 L87.4743903,9.81893994 L89.8147086,9.81893994 L86.5296251,0.504188654 L84.7588653,0.504188654 Z M77.7622043,6.60004403 L72.601762,0.504188654 L71.4619703,0.504188654 L71.4619703,9.81893994 L72.9169086,9.81893994 L72.9169086,3.96176962 L78.077351,9.81893994 L79.2171427,9.81893994 L79.2171427,0.504188654 L77.7622043,0.504188654 L77.7622043,6.60004403 Z M63.5947757,6.36135897 L64.9147476,2.45657876 L66.0849068,6.36135897 L63.5947757,6.36135897 Z M64.4200956,0.504188654 L60.8644044,9.81893994 L62.4246166,9.81893994 L63.219569,7.46360119 L66.4297461,7.46360119 L67.1349458,9.81893994 L69.4745892,9.81893994 L66.1895058,0.504188654 L64.4200956,0.504188654 Z M56.4894668,0.504188654 L53.7894629,6.61479423 L50.9841851,0.504188654 L48.9893809,0.504188654 L48.3442413,9.81893994 L49.8288723,9.81893994 L50.0839589,3.14179259 L52.7994839,9.14780584 L53.8495229,9.14780584 L56.5798943,3.1270424 L56.9395799,9.81893994 L58.9795978,9.81893994 L58.4545783,0.504188654 L56.4894668,0.504188654 Z M35.3091812,1.78544466 C36.2391001,1.6815228 36.8397008,1.6520224 37.6339784,1.6520224 L37.9794925,1.6520224 L37.9794925,9.81893994 L40.1247843,9.81893994 L40.1247843,1.6520224 L40.4541024,1.6520224 C41.264576,1.6520224 41.8645019,1.6815228 42.7944207,1.78544466 L42.7944207,0.504188654 L35.3091812,0.504188654 L35.3091812,1.78544466 Z M29.9375164,8.6416058 L29.9375164,5.69089534 L30.1932778,5.69089534 C31.0779829,5.69089534 32.0079018,5.70564554 32.9229743,5.74989614 L32.9229743,4.46864013 C32.0079018,4.51356119 31.0779829,4.52831139 30.1932778,4.52831139 L29.9375164,4.52831139 L29.9375164,1.6667726 L30.9133238,1.6667726 C32.1280219,1.6667726 32.7286226,1.696273 33.6585415,1.78544466 L33.6585415,0.504188654 L27.8077457,0.504188654 L27.8077457,9.81893994 L33.7334479,9.81893994 L33.7334479,8.4920924 C32.8028542,8.59668473 32.2029283,8.6416058 30.9882302,8.6416058 L29.9375164,8.6416058 Z M23.5630508,4.52831139 L22.1533262,3.81292669 C21.2834674,3.36572745 20.8630469,3.08212133 20.8630469,2.45657876 C20.8630469,1.80086532 21.4784939,1.42808754 22.3179853,1.42808754 C23.1433051,1.42808754 23.7735985,1.62185153 24.5833972,2.11397184 L25.1536304,1.02580936 C24.4335844,0.533689054 23.4888192,0.2655036 22.3179853,0.2655036 C20.4433012,0.2655036 18.8081826,1.21957335 18.8081826,2.9480286 C18.8081826,4.21520488 19.4378011,4.91516891 20.593114,5.51188155 L21.8833933,6.16759498 C22.9030648,6.67446549 23.3828706,7.03182261 23.3828706,7.70295671 C23.3828706,8.462592 22.6182856,8.83536979 21.7329057,8.83536979 C20.9527996,8.83536979 20.1882146,8.58193453 19.3628948,7.9262211 L18.6732162,9.01438358 C19.5282287,9.77401888 20.7436016,10.0569545 21.7632731,10.0569545 C23.9085649,10.0569545 25.3635033,8.96946251 25.3635033,7.19541573 C25.3635033,6.07842332 24.8533301,5.19877503 23.5630508,4.52831139 Z M15.1249481,4.52831139 L13.7145487,3.81292669 C12.8446899,3.36572745 12.4242694,3.08212133 12.4242694,2.45657876 C12.4242694,1.80086532 13.0397164,1.42808754 13.8792078,1.42808754 C14.7045276,1.42808754 15.334821,1.62185153 16.1446197,2.11397184 L16.7148529,1.02580936 C15.9948069,0.533689054 15.0493669,0.2655036 13.8792078,0.2655036 C12.0045237,0.2655036 10.3694051,1.21957335 10.3694051,2.9480286 C10.3694051,4.21520488 10.9990236,4.91516891 12.1543365,5.51188155 L13.4446158,6.16759498 C14.4642873,6.67446549 14.9447679,7.03182261 14.9447679,7.70295671 C14.9447679,8.462592 14.1801829,8.83536979 13.2941282,8.83536979 C12.5146969,8.83536979 11.7494371,8.58193453 10.9247921,7.9262211 L10.2344387,9.01438358 C11.0894512,9.77401888 12.3041492,10.0569545 13.3244956,10.0569545 C15.4697874,10.0569545 16.9247258,8.96946251 16.9247258,7.19541573 C16.9247258,6.07842332 16.4152274,5.19877503 15.1249481,4.52831139 Z M2.73030387,6.36135897 L4.05027578,2.45657876 L5.22043494,6.36135897 L2.73030387,6.36135897 Z M3.55562373,0.504188654 L-6.74832267e-05,9.81893994 L1.56014472,9.81893994 L2.35509713,7.46360119 L5.56527422,7.46360119 L6.27047394,9.81893994 L8.61079225,9.81893994 L5.32570877,0.504188654 L3.55562373,0.504188654 Z" id="Fill-2" fill="#5C656D" mask="url(#mask-2)"></path>
                    </g>
                    <mask id="mask-4" fill="white">
                        <use xlink:href="#path-3"></use>
                    </mask>
                    <g id="Clip-6"></g>
                    <path d="M112.796864,38.7608437 L116.619114,38.7608437 L116.619114,23.6351841 L112.796864,23.6351841 L112.796864,38.7608437 Z M89.453066,38.7494458 L92.3642924,38.7494458 L98.1158878,28.946597 L103.5989,38.7494458 L107.965065,38.7494458 L98.851455,23.2550312 L89.453066,38.7494458 Z M78.1030621,37.3206878 C77.8365034,37.3206878 77.4889647,37.2972216 77.0348026,37.2482777 L77.0348026,31.7296915 L78.1030621,31.7296915 C80.6964425,31.7296915 82.1662272,32.6502381 82.1662272,34.3921026 C82.1662272,36.2331958 80.8037408,37.3206878 78.1030621,37.3206878 Z M77.0348026,25.0988062 C77.4086597,25.0498623 77.7825168,25.0270666 78.184042,25.0270666 C80.2416056,25.0270666 81.4178382,25.9462722 81.4178382,27.4226331 C81.4178382,29.1893048 80.187619,30.0602371 78.1030621,30.0602371 L77.0348026,30.0602371 L77.0348026,25.0988062 Z M82.2458574,30.689132 C84.0908488,30.0843738 85.0531596,28.7541739 85.0531596,27.3019497 C85.0531596,24.3733645 82.0326104,23.3810784 77.8634966,23.3810784 C76.2864136,23.3810784 74.5757138,23.4776251 73.2658644,23.6955258 L73.2658644,38.7011724 C75.3504213,38.9425393 76.9011858,39.0149494 78.4782688,39.0149494 C83.0219145,39.0149494 85.9878023,37.417905 85.9878023,34.4410465 C85.9878023,32.6261014 84.7062958,31.1980139 82.2458574,30.689132 Z M63.9410321,32.2385734 C63.9410321,35.4333327 62.6575012,36.9103641 60.1187822,36.9103641 C57.3924598,36.9103641 56.510454,34.8044378 56.510454,31.6338152 L56.510454,23.6237862 L52.6875293,23.6237862 L52.6875293,32.5295547 C52.6875293,36.5959166 54.7187744,39.1369738 59.5829654,39.1369738 C64.5551295,39.1369738 66.6133679,36.2807987 66.6133679,32.1172195 L66.6133679,23.6237862 L63.9410321,23.6237862 L63.9410321,32.2385734 Z M37.231171,37.2248115 C36.7236971,37.2248115 36.2155484,37.2000043 35.7080746,37.1269238 L35.7080746,25.2449673 C36.2425417,25.1718867 36.8303206,25.1229429 37.2048526,25.1229429 C41.2943361,25.1229429 43.1919644,27.4481108 43.1919644,31.0773304 C43.1919644,34.3438293 41.3746411,37.2248115 37.231171,37.2248115 Z M36.9369441,23.3810784 C34.905699,23.3810784 33.783453,23.4534884 31.9128179,23.6955258 L31.9128179,38.7011724 C33.944063,38.9673465 35.227594,39.0149494 36.9639374,39.0149494 C44.5018139,39.0149494 47.2024926,34.9740651 47.2024926,31.0049204 C47.2024926,26.3820736 44.1279568,23.3810784 36.9369441,23.3810784 Z" id="Fill-5" fill="#101820" mask="url(#mask-4)"></path>
                </g>
            </g>
        </g>
    </g>
</svg>