<svg xmlns="http://www.w3.org/2000/svg" xmlns:xlink="http://www.w3.org/1999/xlink" width="150" height="57" viewBox="0 0 150 57">
    <defs>
        <path id="a" d="M0 .268h148.832v9.87H0z"/>
    </defs>
    <g fill="none" fill-rule="evenodd">
        <path fill="#E41323" d="M98.79 16.548l-8.158-7.645 8.4 14.725 13.86-23.56z"/>
        <g transform="translate(.482 46.025)">
            <mask id="b" fill="#fff">
                <use xlink:href="#a"/>
            </mask>
            <path fill="#FFF" d="M141.347.508V1.8c.93-.105 1.53-.135 2.325-.135h.345v8.233h2.146V1.665h.33c.81 0 1.41.03 2.34.135V.508h-7.486zm-3.332 6.145l-5.16-6.145h-1.14v9.39h1.454V3.994l5.16 5.904h1.14V.508h-1.454v6.145zm-12.402 2.058V5.737h.255c.885 0 1.815.014 2.73.059V4.504c-.915.046-1.845.06-2.73.06h-.255V1.68h.975c1.214 0 1.815.03 2.745.12V.508h-5.85v9.39h5.925V8.56c-.93.106-1.53.15-2.745.15h-1.05zM118.226.508l-2.7 6.16-2.805-6.16h-1.996l-.644 9.39h1.484l.255-6.731 2.716 6.054h1.05l2.73-6.069.36 6.746h2.04l-.525-9.39h-1.965zm-14.03 8.203V5.737h.255c.885 0 1.815.014 2.73.059V4.504c-.915.046-1.845.06-2.73.06h-.255V1.68h.975c1.215 0 1.815.03 2.745.12V.508h-5.85v9.39h5.925V8.56c-.93.106-1.53.15-2.745.15h-1.05zm-8.598-2.72h1.905v2.675c-.435.225-.915.3-1.365.3-2.07 0-2.94-1.713-2.94-3.755 0-2.044 1.11-3.741 3.18-3.741.825 0 1.47.225 2.175.721l.645-1.067c-.795-.571-1.74-.856-2.985-.856-3.195 0-5.28 2.133-5.28 5.062 0 2.945 1.74 4.808 4.755 4.808 1.395 0 2.67-.33 3.585-.961V4.835h-3.675v1.156zm-11.664.421l1.32-3.936 1.17 3.936h-2.49zM84.76.508l-3.555 9.39h1.56l.795-2.375h3.21l.705 2.375h2.34L86.53.508h-1.771zm-6.997 6.145L72.602.508h-1.14v9.39h1.455V3.994l5.16 5.904h1.14V.508h-1.455v6.145zm-14.167-.24l1.32-3.937 1.17 3.936h-2.49zM64.42.507l-3.556 9.39h1.56l.796-2.375h3.21l.705 2.375h2.34L66.19.508h-1.77zm-7.93 0l-2.7 6.16-2.806-6.16H48.99l-.645 9.39h1.485l.255-6.731 2.715 6.054h1.05l2.73-6.069.36 6.746h2.04l-.524-9.39h-1.966zM35.31 1.8c.93-.105 1.53-.135 2.324-.135h.345v8.233h2.146V1.665h.33c.81 0 1.41.03 2.34.135V.508h-7.486V1.8zm-5.372 6.91V5.738h.255c.885 0 1.815.014 2.73.059V4.504c-.915.046-1.845.06-2.73.06h-.255V1.68h.975c1.215 0 1.816.03 2.746.12V.508h-5.851v9.39h5.925V8.56c-.93.106-1.53.15-2.745.15h-1.05zm-6.375-4.145l-1.41-.721c-.87-.451-1.29-.737-1.29-1.368 0-.66.615-1.036 1.455-1.036.825 0 1.456.195 2.265.69l.57-1.096c-.72-.496-1.664-.766-2.835-.766-1.875 0-3.51.961-3.51 2.704 0 1.277.63 1.983 1.785 2.584l1.29.661c1.02.511 1.5.871 1.5 1.548 0 .765-.765 1.141-1.65 1.141-.78 0-1.545-.255-2.37-.916l-.69 1.097c.855.765 2.07 1.05 3.09 1.05 2.146 0 3.6-1.096 3.6-2.884 0-1.126-.51-2.013-1.8-2.688zm-8.438 0l-1.41-.721c-.87-.451-1.29-.737-1.29-1.368 0-.66.615-1.036 1.454-1.036.826 0 1.456.195 2.266.69l.57-1.096c-.72-.496-1.666-.766-2.836-.766-1.874 0-3.51.961-3.51 2.704 0 1.277.63 1.983 1.785 2.584l1.29.661c1.02.511 1.5.871 1.5 1.548 0 .765-.764 1.141-1.65 1.141-.78 0-1.545-.255-2.37-.916l-.69 1.097c.855.765 2.07 1.05 3.09 1.05 2.146 0 3.6-1.096 3.6-2.884 0-1.126-.509-2.013-1.8-2.688zM2.73 6.412l1.32-3.936 1.17 3.936H2.73zM3.556.508L0 9.898h1.56l.795-2.375h3.21l.705 2.375h2.34L5.327.508h-1.77z" mask="url(#b)"/>
        </g>
        <path fill="#FFF" d="M113.279 39.14h3.822V23.893h-3.822V39.14zm-23.344-.012h2.911l5.752-9.881 5.483 9.881h4.366L99.333 23.51l-9.398 15.618zm-11.35-1.44c-.267 0-.614-.024-1.068-.073v-5.563h1.068c2.593 0 4.063.928 4.063 2.684 0 1.856-1.363 2.952-4.063 2.952zm-1.068-12.32c.373-.05.747-.072 1.149-.072 2.057 0 3.234.926 3.234 2.415 0 1.78-1.23 2.658-3.315 2.658h-1.068v-5zm5.21 5.635c1.846-.61 2.808-1.95 2.808-3.414 0-2.952-3.02-3.952-7.19-3.952-1.577 0-3.288.097-4.597.317V39.08c2.084.243 3.635.316 5.212.316 4.544 0 7.51-1.61 7.51-4.61 0-1.83-1.282-3.27-3.742-3.783zm-18.304 1.562c0 3.22-1.284 4.71-3.822 4.71-2.727 0-3.609-2.123-3.609-5.32v-8.074H53.17v8.978c0 4.099 2.032 6.66 6.896 6.66 4.972 0 7.03-2.88 7.03-7.076V23.88h-2.672v8.684zm-26.71 5.026c-.508 0-1.016-.025-1.523-.098V25.516a12.39 12.39 0 0 1 1.497-.123c4.09 0 5.987 2.343 5.987 6.002 0 3.292-1.818 6.196-5.961 6.196zm-.294-13.954c-2.032 0-3.154.073-5.024.317V39.08c2.03.268 3.314.316 5.05.316 7.539 0 10.24-4.073 10.24-8.074 0-4.66-3.075-7.685-10.266-7.685z"/>
    </g>
</svg>
